<?xml version="1.0" standalone="no"?>
<!DOCTYPE svg PUBLIC "-//W3C//DTD SVG 20010904//EN"
 "http://www.w3.org/TR/2001/REC-SVG-20010904/DTD/svg10.dtd">
<svg version="1.0" xmlns="http://www.w3.org/2000/svg"
 width="240.000000pt" height="240.000000pt" viewBox="0 0 240.000000 240.000000"
 preserveAspectRatio="xMidYMid meet">

<g transform="translate(0.000000,240.000000) scale(0.100000,-0.100000)"
fill="#000000" stroke="none">
<path d="M1045 2389 c-387 -53 -733 -296 -909 -639 -93 -181 -130 -339 -130
-550 0 -257 58 -451 199 -666 173 -261 446 -444 765 -510 116 -25 344 -25 460
0 319 67 591 248 765 510 141 215 199 409 199 666 0 101 -5 171 -18 230 -101
483 -463 847 -941 945 -98 20 -295 27 -390 14z m280 -574 c215 -45 400 -210
471 -421 161 -480 -310 -951 -790 -790 -269 91 -451 357 -433 633 6 89 42 209
84 281 37 63 134 164 197 206 138 91 310 125 471 91z"/>
<path d="M1052 1750 c-99 -26 -174 -70 -253 -149 -80 -81 -123 -155 -149 -257
-25 -98 -25 -190 0 -288 27 -107 63 -169 145 -252 84 -85 157 -128 261 -154
423 -108 802 271 694 694 -11 43 -34 103 -52 135 -41 72 -147 178 -219 219
-121 69 -287 89 -427 52z m199 -387 c208 -117 258 -149 247 -158 -16 -15 -504
-315 -512 -315 -3 0 -6 140 -6 310 0 171 3 310 6 310 3 0 122 -66 265 -147z"/>
</g>
</svg>
